<mxfile host="app.diagrams.net" modified="2022-12-05T03:44:27.133Z" agent="5.0 (X11; Linux x86_64) AppleWebKit/537.36 (KHTML, like Gecko) Chrome/107.0.0.0 Safari/537.36" etag="_eG6jDKkcEM787zXHDqX" version="20.6.0" type="github">
  <diagram id="C5RBs43oDa-KdzZeNtuy" name="Page-1">
    <mxGraphModel dx="1348" dy="777" grid="1" gridSize="10" guides="1" tooltips="1" connect="1" arrows="1" fold="1" page="1" pageScale="1" pageWidth="1169" pageHeight="827" math="0" shadow="0">
      <root>
        <mxCell id="WIyWlLk6GJQsqaUBKTNV-0" />
        <mxCell id="WIyWlLk6GJQsqaUBKTNV-1" parent="WIyWlLk6GJQsqaUBKTNV-0" />
        <mxCell id="03haz7L_dRaEeCUvsXFJ-0" value="End Point 1" style="ellipse;whiteSpace=wrap;html=1;aspect=fixed;" parent="WIyWlLk6GJQsqaUBKTNV-1" vertex="1">
          <mxGeometry x="49" y="130" width="60" height="60" as="geometry" />
        </mxCell>
        <mxCell id="03haz7L_dRaEeCUvsXFJ-5" value="End Point 2" style="ellipse;whiteSpace=wrap;html=1;aspect=fixed;" parent="WIyWlLk6GJQsqaUBKTNV-1" vertex="1">
          <mxGeometry x="49" y="250" width="60" height="60" as="geometry" />
        </mxCell>
        <mxCell id="03haz7L_dRaEeCUvsXFJ-6" value="End Point 3" style="ellipse;whiteSpace=wrap;html=1;aspect=fixed;" parent="WIyWlLk6GJQsqaUBKTNV-1" vertex="1">
          <mxGeometry x="49" y="374" width="60" height="60" as="geometry" />
        </mxCell>
        <mxCell id="03haz7L_dRaEeCUvsXFJ-7" value="End Point 4" style="ellipse;whiteSpace=wrap;html=1;aspect=fixed;" parent="WIyWlLk6GJQsqaUBKTNV-1" vertex="1">
          <mxGeometry x="49" y="490" width="60" height="60" as="geometry" />
        </mxCell>
        <mxCell id="03haz7L_dRaEeCUvsXFJ-8" value="End Point n" style="ellipse;whiteSpace=wrap;html=1;aspect=fixed;" parent="WIyWlLk6GJQsqaUBKTNV-1" vertex="1">
          <mxGeometry x="49" y="610" width="60" height="60" as="geometry" />
        </mxCell>
        <mxCell id="03haz7L_dRaEeCUvsXFJ-9" value="Internet" style="ellipse;shape=cloud;whiteSpace=wrap;html=1;" parent="WIyWlLk6GJQsqaUBKTNV-1" vertex="1">
          <mxGeometry x="199" y="360" width="120" height="80" as="geometry" />
        </mxCell>
        <mxCell id="03haz7L_dRaEeCUvsXFJ-10" value="" style="endArrow=classic;startArrow=classic;html=1;rounded=0;exitX=1;exitY=0.5;exitDx=0;exitDy=0;entryX=0.4;entryY=0.1;entryDx=0;entryDy=0;entryPerimeter=0;" parent="WIyWlLk6GJQsqaUBKTNV-1" source="03haz7L_dRaEeCUvsXFJ-0" target="03haz7L_dRaEeCUvsXFJ-9" edge="1">
          <mxGeometry width="50" height="50" relative="1" as="geometry">
            <mxPoint x="229" y="230" as="sourcePoint" />
            <mxPoint x="279" y="180" as="targetPoint" />
          </mxGeometry>
        </mxCell>
        <mxCell id="03haz7L_dRaEeCUvsXFJ-12" value="" style="endArrow=classic;startArrow=classic;html=1;rounded=0;exitX=1;exitY=0.5;exitDx=0;exitDy=0;entryX=0.25;entryY=0.25;entryDx=0;entryDy=0;entryPerimeter=0;" parent="WIyWlLk6GJQsqaUBKTNV-1" source="03haz7L_dRaEeCUvsXFJ-5" target="03haz7L_dRaEeCUvsXFJ-9" edge="1">
          <mxGeometry width="50" height="50" relative="1" as="geometry">
            <mxPoint x="119" y="320" as="sourcePoint" />
            <mxPoint x="257" y="528.0000000000002" as="targetPoint" />
          </mxGeometry>
        </mxCell>
        <mxCell id="03haz7L_dRaEeCUvsXFJ-13" value="" style="endArrow=classic;startArrow=classic;html=1;rounded=0;exitX=1;exitY=0.5;exitDx=0;exitDy=0;entryX=0.16;entryY=0.55;entryDx=0;entryDy=0;entryPerimeter=0;" parent="WIyWlLk6GJQsqaUBKTNV-1" source="03haz7L_dRaEeCUvsXFJ-6" target="03haz7L_dRaEeCUvsXFJ-9" edge="1">
          <mxGeometry width="50" height="50" relative="1" as="geometry">
            <mxPoint x="159" y="440" as="sourcePoint" />
            <mxPoint x="297" y="648.0000000000002" as="targetPoint" />
          </mxGeometry>
        </mxCell>
        <mxCell id="03haz7L_dRaEeCUvsXFJ-14" value="" style="endArrow=classic;startArrow=classic;html=1;rounded=0;exitX=1;exitY=0.5;exitDx=0;exitDy=0;entryX=0.31;entryY=0.8;entryDx=0;entryDy=0;entryPerimeter=0;" parent="WIyWlLk6GJQsqaUBKTNV-1" source="03haz7L_dRaEeCUvsXFJ-7" target="03haz7L_dRaEeCUvsXFJ-9" edge="1">
          <mxGeometry width="50" height="50" relative="1" as="geometry">
            <mxPoint x="219" y="510" as="sourcePoint" />
            <mxPoint x="357" y="718.0000000000002" as="targetPoint" />
          </mxGeometry>
        </mxCell>
        <mxCell id="03haz7L_dRaEeCUvsXFJ-15" value="" style="endArrow=classic;startArrow=classic;html=1;rounded=0;exitX=1;exitY=0.5;exitDx=0;exitDy=0;entryX=0.55;entryY=0.95;entryDx=0;entryDy=0;entryPerimeter=0;" parent="WIyWlLk6GJQsqaUBKTNV-1" source="03haz7L_dRaEeCUvsXFJ-8" target="03haz7L_dRaEeCUvsXFJ-9" edge="1">
          <mxGeometry width="50" height="50" relative="1" as="geometry">
            <mxPoint x="219" y="530" as="sourcePoint" />
            <mxPoint x="357" y="738.0000000000002" as="targetPoint" />
          </mxGeometry>
        </mxCell>
        <mxCell id="03haz7L_dRaEeCUvsXFJ-21" value="" style="whiteSpace=wrap;html=1;aspect=fixed;align=center;" parent="WIyWlLk6GJQsqaUBKTNV-1" vertex="1">
          <mxGeometry x="467" y="291" width="290" height="290" as="geometry" />
        </mxCell>
        <mxCell id="03haz7L_dRaEeCUvsXFJ-16" value="Eclipse Mosquitto Broker" style="rounded=1;whiteSpace=wrap;html=1;" parent="WIyWlLk6GJQsqaUBKTNV-1" vertex="1">
          <mxGeometry x="552" y="370" width="120" height="60" as="geometry" />
        </mxCell>
        <mxCell id="03haz7L_dRaEeCUvsXFJ-20" value="" style="shape=image;html=1;verticalAlign=top;verticalLabelPosition=bottom;labelBackgroundColor=#ffffff;imageAspect=0;aspect=fixed;image=https://cdn1.iconfinder.com/data/icons/communication-icons-10/750/Untitled-1-09-128.png" parent="WIyWlLk6GJQsqaUBKTNV-1" vertex="1">
          <mxGeometry x="976" y="549" width="135" height="128" as="geometry" />
        </mxCell>
        <mxCell id="03haz7L_dRaEeCUvsXFJ-22" value="WebApp&lt;br&gt;Twilio Handler" style="rounded=1;whiteSpace=wrap;html=1;" parent="WIyWlLk6GJQsqaUBKTNV-1" vertex="1">
          <mxGeometry x="552" y="482" width="120" height="60" as="geometry" />
        </mxCell>
        <mxCell id="03haz7L_dRaEeCUvsXFJ-24" value="" style="endArrow=classic;startArrow=classic;html=1;rounded=0;entryX=0.5;entryY=1;entryDx=0;entryDy=0;exitX=0.5;exitY=0;exitDx=0;exitDy=0;" parent="WIyWlLk6GJQsqaUBKTNV-1" source="03haz7L_dRaEeCUvsXFJ-22" target="03haz7L_dRaEeCUvsXFJ-16" edge="1">
          <mxGeometry width="50" height="50" relative="1" as="geometry">
            <mxPoint x="377" y="595" as="sourcePoint" />
            <mxPoint x="397" y="455" as="targetPoint" />
          </mxGeometry>
        </mxCell>
        <mxCell id="03haz7L_dRaEeCUvsXFJ-28" value="Twilio&lt;br&gt;SMS Webhook&lt;br&gt;REST (POST)" style="ellipse;shape=cloud;whiteSpace=wrap;html=1;" parent="WIyWlLk6GJQsqaUBKTNV-1" vertex="1">
          <mxGeometry x="787" y="460" width="183" height="94" as="geometry" />
        </mxCell>
        <mxCell id="03haz7L_dRaEeCUvsXFJ-30" value="" style="sketch=0;pointerEvents=1;shadow=0;dashed=0;html=1;strokeColor=none;fillColor=#434445;aspect=fixed;labelPosition=center;verticalLabelPosition=bottom;verticalAlign=top;align=center;outlineConnect=0;shape=mxgraph.vvd.wi_fi;rotation=-105;" parent="WIyWlLk6GJQsqaUBKTNV-1" vertex="1">
          <mxGeometry x="966" y="509" width="57" height="50" as="geometry" />
        </mxCell>
        <mxCell id="3nqfhWqh9-ha-coxiIRk-0" value="Dedicated&lt;br&gt;Server" style="text;html=1;strokeColor=none;fillColor=none;align=center;verticalAlign=middle;whiteSpace=wrap;rounded=0;" parent="WIyWlLk6GJQsqaUBKTNV-1" vertex="1">
          <mxGeometry x="470" y="271" width="60" height="90" as="geometry" />
        </mxCell>
        <mxCell id="2odqsSRgmD6pPZfuRROn-2" value="" style="endArrow=classic;startArrow=classic;html=1;rounded=0;exitX=0.875;exitY=0.5;exitDx=0;exitDy=0;exitPerimeter=0;entryX=0.002;entryY=0.376;entryDx=0;entryDy=0;entryPerimeter=0;" parent="WIyWlLk6GJQsqaUBKTNV-1" source="03haz7L_dRaEeCUvsXFJ-9" target="03haz7L_dRaEeCUvsXFJ-21" edge="1">
          <mxGeometry width="50" height="50" relative="1" as="geometry">
            <mxPoint x="540" y="430" as="sourcePoint" />
            <mxPoint x="590" y="380" as="targetPoint" />
          </mxGeometry>
        </mxCell>
        <mxCell id="2odqsSRgmD6pPZfuRROn-3" value="" style="endArrow=classic;startArrow=classic;html=1;rounded=0;entryX=0.012;entryY=0.505;entryDx=0;entryDy=0;entryPerimeter=0;" parent="WIyWlLk6GJQsqaUBKTNV-1" target="03haz7L_dRaEeCUvsXFJ-16" edge="1">
          <mxGeometry width="50" height="50" relative="1" as="geometry">
            <mxPoint x="467" y="400" as="sourcePoint" />
            <mxPoint x="549" y="400" as="targetPoint" />
          </mxGeometry>
        </mxCell>
        <mxCell id="2odqsSRgmD6pPZfuRROn-4" value="" style="endArrow=classic;startArrow=classic;html=1;rounded=0;exitX=1;exitY=0.5;exitDx=0;exitDy=0;entryX=1.001;entryY=0.655;entryDx=0;entryDy=0;entryPerimeter=0;" parent="WIyWlLk6GJQsqaUBKTNV-1" source="03haz7L_dRaEeCUvsXFJ-22" edge="1">
          <mxGeometry width="50" height="50" relative="1" as="geometry">
            <mxPoint x="673.2" y="511.96000000000004" as="sourcePoint" />
            <mxPoint x="757.29" y="511.95000000000005" as="targetPoint" />
          </mxGeometry>
        </mxCell>
        <mxCell id="2odqsSRgmD6pPZfuRROn-5" value="" style="endArrow=classic;startArrow=classic;html=1;rounded=0;entryX=0.16;entryY=0.55;entryDx=0;entryDy=0;entryPerimeter=0;" parent="WIyWlLk6GJQsqaUBKTNV-1" target="03haz7L_dRaEeCUvsXFJ-28" edge="1">
          <mxGeometry width="50" height="50" relative="1" as="geometry">
            <mxPoint x="757" y="512" as="sourcePoint" />
            <mxPoint x="803.2" y="512.0000000000001" as="targetPoint" />
          </mxGeometry>
        </mxCell>
        <mxCell id="2odqsSRgmD6pPZfuRROn-8" value="MQTT" style="text;html=1;strokeColor=none;fillColor=none;align=center;verticalAlign=middle;whiteSpace=wrap;rounded=0;" parent="WIyWlLk6GJQsqaUBKTNV-1" vertex="1">
          <mxGeometry x="350" y="374" width="60" height="30" as="geometry" />
        </mxCell>
        <mxCell id="2odqsSRgmD6pPZfuRROn-9" value="Pub/Sub" style="text;html=1;strokeColor=none;fillColor=none;align=center;verticalAlign=middle;whiteSpace=wrap;rounded=0;" parent="WIyWlLk6GJQsqaUBKTNV-1" vertex="1">
          <mxGeometry x="552" y="440" width="60" height="30" as="geometry" />
        </mxCell>
        <mxCell id="2odqsSRgmD6pPZfuRROn-10" value="Pub/Sub" style="text;html=1;strokeColor=none;fillColor=none;align=center;verticalAlign=middle;whiteSpace=wrap;rounded=0;" parent="WIyWlLk6GJQsqaUBKTNV-1" vertex="1">
          <mxGeometry x="350" y="400" width="60" height="30" as="geometry" />
        </mxCell>
      </root>
    </mxGraphModel>
  </diagram>
</mxfile>
